<svg xmlns="http://www.w3.org/2000/svg" viewBox="0 0 199.09 175.04"><defs><style>.a00081fe-9d89-435b-9c4e-df547ddf23a2{isolation:isolate;}.ada9b4fd-969b-4abc-a450-f6d25e6fab65{fill:#ee3424;}.a64f4a4d-3283-4c97-a318-f527c1759b3f,.bbf9a82a-4513-4b77-be92-43f600242dd5,.eef869b8-4b0e-44c8-baa0-0e624f568d9d{fill:#59534d;}.fb023f82-741f-405c-9491-e40e07ab16d8{fill:#37332f;}.bbf9a82a-4513-4b77-be92-43f600242dd5{opacity:0.4;mix-blend-mode:multiply;}.a64f4a4d-3283-4c97-a318-f527c1759b3f{mix-blend-mode:screen;}</style></defs><g class="a00081fe-9d89-435b-9c4e-df547ddf23a2"><g id="b3cf0b87-150a-4e7f-af46-63fb46ef4731" data-name="Calque 1"><polygon class="ada9b4fd-969b-4abc-a450-f6d25e6fab65" points="150.43 157.24 199.09 110.57 144.25 127.09 156.02 60.09 126.73 99.8 124.27 24.3 102.28 103.97 68.75 0 73.9 101 42.7 72.5 61.16 135.68 0 94.44 52.28 159.96 33.25 169.13 61.56 163.5 16.93 110.08 69.69 148.87 49.52 84.8 81.31 123.35 72.44 20.98 101.31 128.35 121.31 42.37 120.6 123.35 149.25 73.87 129.98 140.93 187.16 118.3 137.85 161.77 171.41 167.67 150.43 157.24"/><rect class="eef869b8-4b0e-44c8-baa0-0e624f568d9d" x="92.41" y="131.22" width="20.89" height="18.36" rx="6.33"/><rect class="fb023f82-741f-405c-9491-e40e07ab16d8" x="88.33" y="136.91" width="29.03" height="5.74"/><rect class="bbf9a82a-4513-4b77-be92-43f600242dd5" x="88.33" y="139.21" width="29.03" height="3.45"/><path class="eef869b8-4b0e-44c8-baa0-0e624f568d9d" d="M136,170c0-16-9.56-29.15-21.25-29.15H90.94C79.25,140.84,69.69,154,69.69,170Z"/><path class="a64f4a4d-3283-4c97-a318-f527c1759b3f" d="M74.17,156.55a35.49,35.49,0,0,0-1.73,5.22c3.55-.13,7.09-.37,10.63-.65.29-1.06.66-2.09,1.05-3.12.18-.48.37-1,.55-1.45Z"/><path class="a64f4a4d-3283-4c97-a318-f527c1759b3f" d="M92.59,141.81c-6.93,0-13.1,4.62-17,11.71h10.3c.29-.65.56-1.32.89-2a23,23,0,0,1,8.09-9c.43-.27.88-.48,1.32-.71Z"/><path class="bbf9a82a-4513-4b77-be92-43f600242dd5" d="M115.35,140.88c1.44,4.23,2.84,8.58,2.53,13.23s-2.65,7.08-5.89,7.64c-1.59.27-31.55,1.77-41.82,2.11a39.44,39.44,0,0,0-.48,6.13H136C136,154.23,126.77,141.32,115.35,140.88Z"/><rect class="fb023f82-741f-405c-9491-e40e07ab16d8" x="67.85" y="164.93" width="70.01" height="10.1"/></g></g></svg>