<svg xmlns="http://www.w3.org/2000/svg" viewBox="0 0 70.01 43.82">
  <defs>
    <style>
      .bab53717-5a04-43e1-bd35-b94028da6472 {
        isolation: isolate;
      }

      .f1ced751-0407-4d18-b6a0-bfd6b7573bc5, .f5a6082e-c784-4996-9dea-c0e4bf7797b8, .fc78fab7-8815-483e-ae7c-0e64dd998ac8 {
        fill: #59534d;
      }

      .e2046a3e-902e-47ed-8c99-cfa1d092ad67 {
        fill: #37332f;
      }

      .f1ced751-0407-4d18-b6a0-bfd6b7573bc5 {
        opacity: 0.4;
        mix-blend-mode: multiply;
      }

      .fc78fab7-8815-483e-ae7c-0e64dd998ac8 {
        mix-blend-mode: screen;
      }
    </style>
  </defs>
  <g class="bab53717-5a04-43e1-bd35-b94028da6472">
    <g id="bf96e5c1-49f1-4e44-8d34-181e936a8aa2" data-name="Calque 1">
      <g>
        <rect class="f5a6082e-c784-4996-9dea-c0e4bf7797b8" x="24.56" width="20.89" height="18.36" rx="6.33"/>
        <rect class="e2046a3e-902e-47ed-8c99-cfa1d092ad67" x="20.49" y="5.69" width="29.03" height="5.74"/>
        <rect class="f1ced751-0407-4d18-b6a0-bfd6b7573bc5" x="20.49" y="7.99" width="29.03" height="3.45"/>
        <path class="f5a6082e-c784-4996-9dea-c0e4bf7797b8" d="M136,170c0-16-9.56-29.15-21.25-29.15H90.94C79.25,140.84,69.69,154,69.69,170Z" transform="translate(-67.85 -131.22)"/>
        <path class="fc78fab7-8815-483e-ae7c-0e64dd998ac8" d="M74.17,156.55a35.49,35.49,0,0,0-1.73,5.22c3.55-.13,7.09-.37,10.63-.65.29-1.06.66-2.09,1.05-3.12.18-.48.37-1,.55-1.45Z" transform="translate(-67.85 -131.22)"/>
        <path class="fc78fab7-8815-483e-ae7c-0e64dd998ac8" d="M92.59,141.81c-6.93,0-13.1,4.62-17,11.71h10.3c.29-.65.56-1.32.89-2a23,23,0,0,1,8.09-9c.43-.27.88-.48,1.32-.71Z" transform="translate(-67.85 -131.22)"/>
        <path class="f1ced751-0407-4d18-b6a0-bfd6b7573bc5" d="M115.35,140.88c1.44,4.23,2.84,8.58,2.53,13.23s-2.65,7.08-5.89,7.64c-1.59.27-31.55,1.77-41.82,2.11a39.44,39.44,0,0,0-.48,6.13H136C136,154.23,126.77,141.32,115.35,140.88Z" transform="translate(-67.85 -131.22)"/>
        <rect class="e2046a3e-902e-47ed-8c99-cfa1d092ad67" y="33.71" width="70.01" height="10.1"/>
      </g>
    </g>
  </g>
</svg>
